<?xml version="1.0" encoding="utf-8"?>
<!-- Generator: Adobe Illustrator 28.3.0, SVG Export Plug-In . SVG Version: 6.00 Build 0)  -->
<svg version="1.1" id="Layer_1" xmlns="http://www.w3.org/2000/svg" xmlns:xlink="http://www.w3.org/1999/xlink" x="0px" y="0px"
	 viewBox="0 0 945.7 44.9" style="enable-background:new 0 0 945.7 44.9;" xml:space="preserve">
<g>
	<polygon points="456.1,22.2 18.5,22.2 20.8,19.4 19.7,19.4 17.4,22.2 15.6,22.2 17.9,19.4 16.8,19.4 14.5,22.2 10.3,22.2 8.6,20.5 
		6.4,22.6 8.6,24.8 10.3,23.1 13.8,23.1 11.4,25.9 12.6,25.9 14.9,23.1 16.7,23.1 14.3,25.9 15.5,25.9 17.8,23.1 456.1,23.1 
		457.8,24.8 460,22.6 457.8,20.5 	"/>
	<polygon points="937.1,24.8 939.3,22.6 937.1,20.5 935.4,22.2 931.2,22.2 928.9,19.4 927.8,19.4 930.1,22.2 928.3,22.2 926,19.4 
		924.9,19.4 927.2,22.2 489.6,22.2 487.9,20.5 485.7,22.6 487.9,24.8 489.6,23.1 927.9,23.1 930.2,25.9 931.4,25.9 929,23.1 
		930.8,23.1 933.1,25.9 934.3,25.9 931.9,23.1 935.4,23.1 	"/>
	<path d="M481.5,22.5L481.5,22.5l3.9-4l-0.6-0.6l-3.9,3.9l-8.1-8.1l-8,8l-3.9-3.9l-0.6,0.6l3.9,3.9l-0.1,0.1l0.1,0.1l-4,4l0.6,0.6
		l4-4l8,8l8.1-8.1l4.1,4.1l0.6-0.6L481.5,22.5L481.5,22.5z M472.8,30l-7.4-7.4l0.1-0.1l-0.1-0.1l7.4-7.4l7.5,7.5l0,0l0,0L472.8,30z"
		/>
	<path d="M468.9,22.5l3.9,3.9l3.9-3.9l-3.9-3.9L468.9,22.5z M472.8,25.1l-2.7-2.7l2.7-2.7l2.7,2.7L472.8,25.1z"/>
</g>
</svg>
