<?xml version="1.0" encoding="utf-8"?>
<!-- Generator: Adobe Illustrator 28.3.0, SVG Export Plug-In . SVG Version: 6.00 Build 0)  -->
<svg version="1.1" id="Layer_1" xmlns="http://www.w3.org/2000/svg" xmlns:xlink="http://www.w3.org/1999/xlink" x="0px" y="0px"
	 viewBox="0 0 257.6 195.8" style="enable-background:new 0 0 257.6 195.8;" xml:space="preserve">
<style type="text/css">
	.st0{fill:#D6BE7A;}
	.st1{fill:#010101;}
</style>
<g>
	<g>
		<g>
			
				<rect x="87.7" y="28.6" transform="matrix(0.7071 -0.7071 0.7071 0.7071 -11.5313 111.4412)" class="st0" width="82.1" height="82.1"/>
			<path class="st1" d="M195.5,67.2c-0.4-3.8-2.9-7.1-7.1-9.7c-2.4-1.5-5.5-2.2-9.1-2.2c-12.9,0-29,9.5-37.9,22.2h-1.1
				c-1.1-1.9-4.4-7.6-6.2-12.9c-0.4-1.3-1.1-3.1-1.7-5.5c-2.9-9.5-7.8-25.4-15.9-37.8C107.9,8,88.8,6.5,81.2,6.5
				c-4.5,0-8,0.4-10.2,0.7c-9.8,1.6-9.5,8.9-8.9,21c0.1,1.8,0.2,3.8,0.2,5.8c0.4,14.7,4,31.3,4.7,33.7c-2.1,2.9-3.1,6.7-3.1,11.6
				c0,8.1,5.3,14.1,15.6,17.9l-5.3,37.8l6.8,0.8L89,99.8c2.9,0.5,5.9,1.1,9.4,1.4c2.3,0.3,5.4,0.5,9.1,0.8l0.4,38.3h6.2l3.7-37.7
				c8.6,0.4,18,0.7,23.4,0.7c0.8,0,1.6,0,2.2,0c2.3-0.1,8.2-0.7,15.3-2.5l5.6,37l7.3-0.4L168,97.9c7.9-3.1,14.1-7.1,18.5-11.9
				C193.4,78.8,196.3,72.6,195.5,67.2z M110.8,137.8l-0.4-35.3c1.5,0.1,3.1,0.2,4.7,0.3l-3.5,35.1H110.8z M77.3,132.8l4.9-34.5
				c1.3,0.4,2.8,0.7,4.3,1.1L78.9,133L77.3,132.8z M166.7,135.3l-5.3-34.9c1.3-0.4,2.8-0.8,4-1.3l3.1,36.1L166.7,135.3z M161.6,97.4
				c2.8-1.9,5.2-4.4,7-7.4c2.1-3.4,2.5-6.3,1.3-8.5c-2-3.7-7.6-4-7.7-4h-17.1c8.4-11.1,23.5-19.5,34.5-19.5c3.1,0,5.6,0.6,7.6,1.9
				c3.5,2.2,5.4,4.8,5.8,7.7c0.6,4.4-2.2,10.1-8.2,16.7C178.5,91.1,169.1,95.1,161.6,97.4z M70.3,68.4c2.5-2.3,5.5-2.5,6-2.5h0.1
				C87.7,66,91.3,70,96.7,76.3c5.6,6.4,12.6,14.3,30.4,21.2c4,1.5,7.7,2.6,11.2,3.3c-10.5-0.2-29.9-1.1-39.4-2.2
				c-13.8-1.6-32.2-5.4-32.2-19.1C66.7,74.5,68,70.7,70.3,68.4z M98.8,74.5c-5.6-6.3-9.9-11.2-22.3-11.3h-0.2c-0.9,0-4,0.2-6.9,2.4
				c-1.1-4.9-3.9-19-4.2-31.5c-0.1-2.1-0.2-4-0.2-5.9c-0.5-12.9-0.4-17,6.7-18.2c2.1-0.4,5.4-0.7,9.8-0.7c7.3,0,25,1.3,32.9,13.6
				C122.2,35,127,50.6,129.9,60c0.7,2.3,1.3,4.1,1.8,5.6c1.6,4.5,4,9.3,5.6,12h-23.2v2.8h48c0.1,0,4.2,0.3,5.4,2.6
				c0.7,1.3,0.3,3.3-1.3,5.8c-4.1,6.8-10.7,10.3-19.7,10.3c-5.5,0-11.6-1.3-18.4-4C111,88.3,104.2,80.6,98.8,74.5z"/>
		</g>
	</g>
	<g>
		<path class="st1" d="M45.1,156.7v0.6c-0.8,0.1-1.5,0.2-2.1,0.3s-1,0.5-1.3,1.1c-0.4,0.5-0.5,1.4-0.4,2.4l1.7,21.7
			c0.1,1.5,0.3,2.6,0.6,3.4c0.3,0.7,0.7,1.2,1.1,1.5c0.4,0.2,1.1,0.5,2.1,0.7v0.6H32.3v-0.6c1.2,0,2.2-0.4,2.9-1s1-1.9,0.8-3.7
			l-1.5-20.5h-0.1L24,189.1h-0.8l-10.7-25h-0.1l-1.4,18c-0.1,1.8,0,3.1,0.4,4.1c0.4,0.9,0.9,1.6,1.5,1.8c0.6,0.3,1.4,0.5,2.2,0.5
			v0.6H4.5v-0.6c1.4-0.1,2.4-0.6,3.1-1.7c0.7-1,1.2-2.7,1.4-5.1l2.1-20.4c-1.3-2.2-3.2-3.4-5.5-3.8v-0.6h11.5l9.2,21.2l8.5-21.2
			h10.3V156.7z"/>
		<path class="st1" d="M48.9,172.7c0-2.2,0.4-4.3,1.1-6.3s1.8-3.8,3.3-5.3c1.4-1.5,3.2-2.7,5.2-3.5s4.4-1.3,6.9-1.3
			c2.6,0,4.9,0.4,7,1.3s3.8,2,5.2,3.6c1.4,1.5,2.5,3.3,3.2,5.3s1.1,4.1,1.1,6.4c0,2.2-0.4,4.3-1.1,6.3s-1.8,3.7-3.1,5.2
			c-1.4,1.5-3.1,2.7-5.2,3.6c-2.1,0.9-4.5,1.3-7.1,1.3c-2.8,0-5.3-0.5-7.4-1.5s-3.8-2.3-5.2-3.9c-1.3-1.6-2.3-3.4-3-5.4
			C49.2,176.6,48.9,174.6,48.9,172.7z M56.4,172.3c0,2.2,0.2,4.3,0.5,6.5c0.3,2.1,1.2,4.1,2.5,6s3.4,2.8,6.1,2.8
			c3.8,0,6.2-1.6,7.3-4.7c1.1-3.1,1.6-6.3,1.6-9.5c0-2.5-0.2-4.9-0.6-7.1c-0.4-2.2-1.3-4.1-2.6-5.7c-1.3-1.6-3.2-2.4-5.6-2.4
			c-2.7,0-4.8,0.9-6.1,2.7s-2.2,3.7-2.5,5.7C56.5,168.6,56.4,170.5,56.4,172.3z"/>
		<path class="st1" d="M84,156.7h17.3c2.8,0,5.4,0.4,7.6,1.3c2.2,0.9,4.1,2.1,5.6,3.7c1.5,1.6,2.6,3.3,3.4,5.3
			c0.8,2,1.1,4.1,1.1,6.3s-0.4,4.2-1.1,6c-0.7,1.9-1.8,3.5-3.2,5c-1.4,1.4-3.2,2.6-5.4,3.4c-2.2,0.8-4.6,1.2-7.3,1.2H83.8v-0.6
			c1.7,0,2.7-0.4,3.2-1.1c0.5-0.8,0.7-1.8,0.7-3v-22.6c0-1.2-0.2-2.2-0.6-3s-1.4-1.2-3.1-1.2h-0.2v-0.7H84z M95,158.8v23.6
			c0,1.1,0.1,2,0.4,2.7s0.7,1.2,1.4,1.5c0.7,0.3,1.7,0.5,3.1,0.5c1.2,0,2.4-0.1,3.4-0.3s1.9-0.5,2.8-1c1.3-0.8,2.4-1.8,3.2-3.1
			s1.5-2.8,1.8-4.4c0.4-1.6,0.6-3.2,0.6-4.9c0-1.8-0.2-3.5-0.7-5.2s-1.2-3.3-2.2-4.8s-2.4-2.7-4.2-3.6c-1.8-0.9-3.9-1.4-6.5-1.4
			C97.1,158.5,96.1,158.6,95,158.8z"/>
		<path class="st1" d="M144.2,156.7l0.3,7.2h-0.6c-0.3-1.2-0.6-2.2-1-3s-0.9-1.4-1.5-1.8c-0.6-0.4-1.5-0.6-2.6-0.6h-6.4v13.6h5.1
			c1.5,0,2.6-0.3,3.3-1s1.1-1.7,1.2-3h0.6v9.5H142c-0.2-1.4-0.7-2.4-1.6-2.9c-0.8-0.5-1.8-0.7-3-0.7h-5.1v9.3c0,2.7,1.4,4,4.1,4h1.9
			c1.3,0,2.4-0.2,3.2-0.5c0.8-0.4,1.5-1,2-1.8c0.5-0.9,1-2.1,1.5-3.6h0.6l-0.5,7.8h-23.9v-0.6c1.7,0,2.7-0.4,3.2-1.1s0.7-1.8,0.7-3
			v-22.6c0-1.2-0.2-2.2-0.7-3c-0.4-0.8-1.5-1.2-3.1-1.2h-0.2v-0.6h23.1V156.7z"/>
		<path class="st1" d="M159.1,173.8h-1v10.3c0,1.2,0.2,2.1,0.5,2.8c0.4,0.6,0.8,1,1.3,1.2s1.2,0.3,2.1,0.3v0.6h-14.9v-0.6
			c1.7,0,2.7-0.4,3.2-1.1c0.5-0.8,0.7-1.8,0.7-3v-22.6c0-1.5-0.3-2.6-0.9-3.3c-0.6-0.6-1.6-1-3-1v-0.6h16.4c2.2,0,4.1,0.3,5.7,1
			c1.6,0.7,2.9,1.7,3.7,2.9s1.3,2.7,1.3,4.3c0,1.3-0.3,2.5-0.8,3.5s-1.3,1.9-2.2,2.5c-0.9,0.7-2,1.2-3.1,1.5c1.5,0.9,2.9,2.6,4.3,5
			l3.8,6.6c0.6,1.1,1.2,2,1.8,2.6c0.5,0.6,1,1,1.4,1.2s0.9,0.3,1.4,0.4v0.6h-10.2c-1-1.8-1.8-3.3-2.3-4.4c-1.7-3.4-2.9-5.7-3.7-7
			s-1.6-2.3-2.4-2.8C161.5,174.1,160.4,173.8,159.1,173.8z M159.8,158.5h-1.7v13.6h1.4c2.5,0,4.3-0.6,5.6-1.8
			c1.2-1.2,1.9-2.9,1.9-5.2c0-1.4-0.3-2.6-0.8-3.6s-1.3-1.7-2.4-2.2C162.7,158.7,161.4,158.5,159.8,158.5z"/>
		<path class="st1" d="M193.5,156.7l19.4,20.8v-14.8c0-1.9-0.4-3.3-1.2-4s-2-1.2-3.6-1.4v-0.6H219v0.6c-1.2,0.1-2.1,0.5-2.7,1
			c-0.6,0.5-1,1.2-1.1,1.9c-0.2,0.7-0.3,1.6-0.3,2.5v26.6h-0.8l-23.2-24.9v18.2c0,1.5,0.3,2.8,1,3.9s1.8,1.7,3.5,1.8v0.6h-11.3v-0.6
			c3.2-0.3,4.7-1.8,4.7-4.8v-21.4c-0.1-0.1-0.2-0.2-0.3-0.3s-0.3-0.3-0.6-0.6s-0.6-0.6-0.8-0.8c-1.9-1.9-3.6-2.9-5.1-3.2v-0.6h11.5
			V156.7z"/>
		<path class="st1" d="M237.6,156.4l10.7,27.9c0.6,1.4,1.2,2.4,2,2.9s1.7,0.9,2.9,1.1v0.6h-15v-0.6c2.1-0.1,3.1-0.8,3.1-2
			c0-0.2,0-0.5-0.1-0.8s-0.2-0.7-0.3-1.1c-0.1-0.4-0.2-0.6-0.2-0.7l-2.6-6.9h-9.5l-2.3,6.6c-0.3,0.8-0.4,1.5-0.4,2.1
			c0,1,0.3,1.7,0.9,2c0.6,0.3,1.3,0.6,2,0.7v0.6h-9.5v-0.6c1-0.1,1.9-0.6,2.8-1.4c0.9-0.8,1.7-2.4,2.5-4.6l9-25.9L237.6,156.4
			L237.6,156.4z M229.2,174.7h7.9l-4.1-10.9L229.2,174.7z"/>
	</g>
</g>
</svg>
